<svg width="221" height="217" viewBox="0 0 221 217" fill="none" xmlns="http://www.w3.org/2000/svg">
<path d="M10.8438 201.094H5.125V197.141H10.8438C11.6875 197.141 12.3646 197 12.875 196.719C13.3958 196.438 13.776 196.052 14.0156 195.562C14.2656 195.062 14.3906 194.5 14.3906 193.875C14.3906 193.229 14.2656 192.63 14.0156 192.078C13.776 191.516 13.3958 191.062 12.875 190.719C12.3646 190.375 11.6875 190.203 10.8438 190.203H6.96875V209H1.875V186.25H10.8438C12.6562 186.25 14.2083 186.578 15.5 187.234C16.8021 187.891 17.7969 188.792 18.4844 189.938C19.1823 191.073 19.5312 192.375 19.5312 193.844C19.5312 195.312 19.1823 196.589 18.4844 197.672C17.7969 198.755 16.8021 199.599 15.5 200.203C14.2083 200.797 12.6562 201.094 10.8438 201.094ZM27.5156 185V209H22.625V185H27.5156ZM39.9844 204.969V197.719C39.9844 197.208 39.9062 196.771 39.75 196.406C39.5938 196.042 39.349 195.755 39.0156 195.547C38.6823 195.339 38.25 195.234 37.7188 195.234C37.2708 195.234 36.8802 195.312 36.5469 195.469C36.224 195.625 35.974 195.849 35.7969 196.141C35.6302 196.432 35.5469 196.792 35.5469 197.219H30.6719C30.6719 196.458 30.8438 195.75 31.1875 195.094C31.5312 194.438 32.0208 193.859 32.6562 193.359C33.3021 192.859 34.0729 192.474 34.9688 192.203C35.8646 191.922 36.8698 191.781 37.9844 191.781C39.3073 191.781 40.4844 192.005 41.5156 192.453C42.5573 192.891 43.3802 193.552 43.9844 194.438C44.5885 195.312 44.8906 196.417 44.8906 197.75V204.828C44.8906 205.849 44.9479 206.651 45.0625 207.234C45.1875 207.807 45.3646 208.307 45.5938 208.734V209H40.6719C40.4427 208.51 40.2708 207.906 40.1562 207.188C40.0417 206.458 39.9844 205.719 39.9844 204.969ZM40.5938 198.688L40.625 201.375H38.2031C37.6615 201.375 37.1927 201.443 36.7969 201.578C36.4115 201.714 36.099 201.901 35.8594 202.141C35.6198 202.37 35.4427 202.641 35.3281 202.953C35.224 203.255 35.1719 203.589 35.1719 203.953C35.1719 204.297 35.2552 204.609 35.4219 204.891C35.5885 205.161 35.8177 205.375 36.1094 205.531C36.401 205.688 36.7396 205.766 37.125 205.766C37.7604 205.766 38.3021 205.641 38.75 205.391C39.2083 205.141 39.5625 204.839 39.8125 204.484C40.0625 204.12 40.1875 203.781 40.1875 203.469L41.3594 205.5C41.1719 205.917 40.9427 206.349 40.6719 206.797C40.401 207.234 40.0573 207.646 39.6406 208.031C39.224 208.406 38.7188 208.714 38.125 208.953C37.5417 209.193 36.8385 209.312 36.0156 209.312C34.9531 209.312 33.9896 209.099 33.125 208.672C32.2604 208.234 31.5677 207.635 31.0469 206.875C30.5365 206.115 30.2812 205.24 30.2812 204.25C30.2812 203.365 30.4427 202.578 30.7656 201.891C31.0885 201.203 31.5729 200.62 32.2188 200.141C32.875 199.661 33.6979 199.302 34.6875 199.062C35.6771 198.812 36.8333 198.688 38.1562 198.688H40.5938ZM52.875 195.703V209H47.9844V192.094H52.5781L52.875 195.703ZM52.2344 199.953L51.0156 199.984C51.0156 198.714 51.1719 197.573 51.4844 196.562C51.7969 195.552 52.2396 194.693 52.8125 193.984C53.3958 193.266 54.0885 192.719 54.8906 192.344C55.7031 191.969 56.599 191.781 57.5781 191.781C58.3698 191.781 59.0938 191.896 59.75 192.125C60.4062 192.354 60.9688 192.724 61.4375 193.234C61.9167 193.734 62.2812 194.401 62.5312 195.234C62.7812 196.057 62.9062 197.073 62.9062 198.281V209H58V198.266C58 197.557 57.901 197.01 57.7031 196.625C57.5052 196.24 57.2135 195.969 56.8281 195.812C56.4531 195.656 55.9948 195.578 55.4531 195.578C54.8802 195.578 54.3906 195.693 53.9844 195.922C53.5781 196.141 53.2448 196.448 52.9844 196.844C52.724 197.24 52.5312 197.703 52.4062 198.234C52.2917 198.766 52.2344 199.339 52.2344 199.953ZM70.875 195.703V209H65.9844V192.094H70.5781L70.875 195.703ZM70.2344 199.953L69.0156 199.984C69.0156 198.714 69.1719 197.573 69.4844 196.562C69.7969 195.552 70.2396 194.693 70.8125 193.984C71.3958 193.266 72.0885 192.719 72.8906 192.344C73.7031 191.969 74.599 191.781 75.5781 191.781C76.3698 191.781 77.0938 191.896 77.75 192.125C78.4062 192.354 78.9688 192.724 79.4375 193.234C79.9167 193.734 80.2812 194.401 80.5312 195.234C80.7812 196.057 80.9062 197.073 80.9062 198.281V209H76V198.266C76 197.557 75.901 197.01 75.7031 196.625C75.5052 196.24 75.2135 195.969 74.8281 195.812C74.4531 195.656 73.9948 195.578 73.4531 195.578C72.8802 195.578 72.3906 195.693 71.9844 195.922C71.5781 196.141 71.2448 196.448 70.9844 196.844C70.724 197.24 70.5312 197.703 70.4062 198.234C70.2917 198.766 70.2344 199.339 70.2344 199.953ZM89.2344 192.094V209H84.3438V192.094H89.2344ZM84.0469 187.719C84.0469 187.01 84.2969 186.432 84.7969 185.984C85.2969 185.526 85.9531 185.297 86.7656 185.297C87.5781 185.297 88.2344 185.526 88.7344 185.984C89.2448 186.432 89.5 187.01 89.5 187.719C89.5 188.417 89.2448 188.995 88.7344 189.453C88.2344 189.901 87.5781 190.125 86.7656 190.125C85.9531 190.125 85.2969 189.901 84.7969 189.453C84.2969 188.995 84.0469 188.417 84.0469 187.719ZM97.5312 195.703V209H92.6406V192.094H97.2344L97.5312 195.703ZM96.8906 199.953L95.6719 199.984C95.6719 198.714 95.8281 197.573 96.1406 196.562C96.4531 195.552 96.8958 194.693 97.4688 193.984C98.0521 193.266 98.7448 192.719 99.5469 192.344C100.359 191.969 101.255 191.781 102.234 191.781C103.026 191.781 103.75 191.896 104.406 192.125C105.062 192.354 105.625 192.724 106.094 193.234C106.573 193.734 106.938 194.401 107.188 195.234C107.438 196.057 107.562 197.073 107.562 198.281V209H102.656V198.266C102.656 197.557 102.557 197.01 102.359 196.625C102.161 196.24 101.87 195.969 101.484 195.812C101.109 195.656 100.651 195.578 100.109 195.578C99.5365 195.578 99.0469 195.693 98.6406 195.922C98.2344 196.141 97.901 196.448 97.6406 196.844C97.3802 197.24 97.1875 197.703 97.0625 198.234C96.9479 198.766 96.8906 199.339 96.8906 199.953ZM121.406 192.094H125.844V208.391C125.844 209.943 125.49 211.26 124.781 212.344C124.083 213.427 123.109 214.25 121.859 214.812C120.609 215.375 119.146 215.656 117.469 215.656C116.74 215.656 115.979 215.557 115.188 215.359C114.396 215.172 113.651 214.885 112.953 214.5C112.255 214.125 111.672 213.646 111.203 213.062L113.281 210.188C113.76 210.729 114.333 211.167 115 211.5C115.667 211.844 116.427 212.016 117.281 212.016C118.062 212.016 118.724 211.875 119.266 211.594C119.807 211.312 120.219 210.901 120.5 210.359C120.792 209.818 120.938 209.161 120.938 208.391V196.047L121.406 192.094ZM110.109 200.75V200.422C110.109 199.141 110.266 197.974 110.578 196.922C110.891 195.859 111.344 194.948 111.938 194.188C112.542 193.417 113.266 192.823 114.109 192.406C114.964 191.99 115.922 191.781 116.984 191.781C118.13 191.781 119.078 192 119.828 192.438C120.578 192.865 121.188 193.469 121.656 194.25C122.125 195.021 122.495 195.932 122.766 196.984C123.036 198.026 123.255 199.156 123.422 200.375V200.938C123.255 202.104 123.016 203.193 122.703 204.203C122.391 205.214 121.984 206.104 121.484 206.875C120.984 207.635 120.359 208.234 119.609 208.672C118.87 209.099 117.984 209.312 116.953 209.312C115.901 209.312 114.953 209.099 114.109 208.672C113.266 208.245 112.542 207.646 111.938 206.875C111.344 206.104 110.891 205.198 110.578 204.156C110.266 203.115 110.109 201.979 110.109 200.75ZM114.984 200.422V200.75C114.984 201.417 115.047 202.036 115.172 202.609C115.307 203.182 115.505 203.688 115.766 204.125C116.036 204.562 116.37 204.906 116.766 205.156C117.172 205.396 117.646 205.516 118.188 205.516C118.979 205.516 119.62 205.349 120.109 205.016C120.609 204.672 120.974 204.198 121.203 203.594C121.443 202.99 121.568 202.286 121.578 201.484V199.844C121.578 199.177 121.51 198.578 121.375 198.047C121.24 197.516 121.036 197.068 120.766 196.703C120.505 196.339 120.161 196.062 119.734 195.875C119.318 195.677 118.812 195.578 118.219 195.578C117.688 195.578 117.219 195.703 116.812 195.953C116.406 196.193 116.068 196.531 115.797 196.969C115.526 197.406 115.323 197.922 115.188 198.516C115.052 199.099 114.984 199.734 114.984 200.422ZM146.281 201.094H140.562V197.141H146.281C147.125 197.141 147.802 197 148.312 196.719C148.833 196.438 149.214 196.052 149.453 195.562C149.703 195.062 149.828 194.5 149.828 193.875C149.828 193.229 149.703 192.63 149.453 192.078C149.214 191.516 148.833 191.062 148.312 190.719C147.802 190.375 147.125 190.203 146.281 190.203H142.406V209H137.312V186.25H146.281C148.094 186.25 149.646 186.578 150.938 187.234C152.24 187.891 153.234 188.792 153.922 189.938C154.62 191.073 154.969 192.375 154.969 193.844C154.969 195.312 154.62 196.589 153.922 197.672C153.234 198.755 152.24 199.599 150.938 200.203C149.646 200.797 148.094 201.094 146.281 201.094ZM156.891 200.719V200.391C156.891 199.151 157.068 198.01 157.422 196.969C157.776 195.917 158.297 195.005 158.984 194.234C159.672 193.464 160.516 192.865 161.516 192.438C162.516 192 163.661 191.781 164.953 191.781C166.266 191.781 167.422 192 168.422 192.438C169.432 192.865 170.281 193.464 170.969 194.234C171.656 195.005 172.177 195.917 172.531 196.969C172.885 198.01 173.062 199.151 173.062 200.391V200.719C173.062 201.948 172.885 203.089 172.531 204.141C172.177 205.182 171.656 206.094 170.969 206.875C170.281 207.646 169.438 208.245 168.438 208.672C167.438 209.099 166.286 209.312 164.984 209.312C163.693 209.312 162.542 209.099 161.531 208.672C160.521 208.245 159.672 207.646 158.984 206.875C158.297 206.094 157.776 205.182 157.422 204.141C157.068 203.089 156.891 201.948 156.891 200.719ZM161.781 200.391V200.719C161.781 201.385 161.833 202.01 161.938 202.594C162.052 203.177 162.234 203.688 162.484 204.125C162.734 204.562 163.062 204.906 163.469 205.156C163.885 205.396 164.391 205.516 164.984 205.516C165.578 205.516 166.078 205.396 166.484 205.156C166.891 204.906 167.219 204.562 167.469 204.125C167.719 203.688 167.896 203.177 168 202.594C168.115 202.01 168.172 201.385 168.172 200.719V200.391C168.172 199.734 168.115 199.12 168 198.547C167.896 197.964 167.719 197.448 167.469 197C167.219 196.552 166.885 196.203 166.469 195.953C166.062 195.703 165.557 195.578 164.953 195.578C164.37 195.578 163.875 195.703 163.469 195.953C163.062 196.203 162.734 196.552 162.484 197C162.234 197.448 162.052 197.964 161.938 198.547C161.833 199.12 161.781 199.734 161.781 200.391ZM180.531 184.984V209H175.641V184.984H180.531ZM191.266 192.094L183.906 200.594L180.016 204.5L178.062 201.203L181.219 197.125L185.391 192.094H191.266ZM186.109 209L181.344 201.234L184.844 198.5L191.703 209H186.109ZM200.594 209.312C199.25 209.312 198.047 209.099 196.984 208.672C195.922 208.245 195.021 207.656 194.281 206.906C193.552 206.146 192.995 205.271 192.609 204.281C192.224 203.292 192.031 202.234 192.031 201.109V200.516C192.031 199.255 192.208 198.094 192.562 197.031C192.917 195.969 193.432 195.047 194.109 194.266C194.797 193.474 195.641 192.865 196.641 192.438C197.641 192 198.781 191.781 200.062 191.781C201.26 191.781 202.328 191.979 203.266 192.375C204.203 192.76 204.995 193.318 205.641 194.047C206.286 194.766 206.776 195.635 207.109 196.656C207.453 197.667 207.625 198.802 207.625 200.062V202.062H194V198.922H202.844V198.547C202.844 197.953 202.734 197.432 202.516 196.984C202.307 196.536 201.995 196.193 201.578 195.953C201.172 195.703 200.656 195.578 200.031 195.578C199.438 195.578 198.943 195.703 198.547 195.953C198.151 196.203 197.833 196.557 197.594 197.016C197.365 197.464 197.198 197.99 197.094 198.594C196.99 199.188 196.938 199.828 196.938 200.516V201.109C196.938 201.766 197.026 202.365 197.203 202.906C197.38 203.448 197.641 203.911 197.984 204.297C198.328 204.682 198.745 204.984 199.234 205.203C199.724 205.422 200.281 205.531 200.906 205.531C201.677 205.531 202.411 205.385 203.109 205.094C203.807 204.792 204.411 204.323 204.922 203.688L207.203 206.297C206.859 206.797 206.375 207.281 205.75 207.75C205.135 208.208 204.396 208.583 203.531 208.875C202.667 209.167 201.688 209.312 200.594 209.312ZM214.891 196.031V209H210.016V192.094H214.594L214.891 196.031ZM219.938 191.969L219.859 196.516C219.651 196.484 219.38 196.458 219.047 196.438C218.714 196.406 218.427 196.391 218.188 196.391C217.562 196.391 217.021 196.469 216.562 196.625C216.115 196.771 215.74 196.99 215.438 197.281C215.146 197.573 214.927 197.938 214.781 198.375C214.635 198.802 214.562 199.297 214.562 199.859L213.641 199.406C213.641 198.292 213.75 197.271 213.969 196.344C214.188 195.417 214.505 194.615 214.922 193.938C215.339 193.25 215.849 192.719 216.453 192.344C217.057 191.969 217.745 191.781 218.516 191.781C218.766 191.781 219.021 191.797 219.281 191.828C219.542 191.859 219.76 191.906 219.938 191.969Z" fill="white"/>
<g filter="url(#filter0_i_49_367)">
<rect x="11" y="47.2455" width="85" height="127.5" rx="15" transform="rotate(-13.7793 11 47.2455)" fill="#04328C"/>
</g>
<g filter="url(#filter1_d_49_367)">
<rect x="60" width="85" height="127.5" rx="15" fill="#1F81BF"/>
</g>
<rect x="73.25" y="15.8" width="58.5" height="96.75" rx="14.5" stroke="#333333"/>
<g filter="url(#filter2_d_49_367)">
<rect x="126.992" y="20" width="85" height="127.5" rx="15" transform="rotate(14.9966 126.992 20)" fill="#F25C05"/>
</g>
<g filter="url(#filter3_d_49_367)">
<path d="M146.892 92.2347L141.636 89.3949L148.054 73.1347L166.935 78.1927L165.437 83.7846L152.352 80.2792L149.697 87.0172C150.17 86.8849 150.882 86.7926 151.834 86.7403C152.79 86.673 153.812 86.7848 154.898 87.0759C156.513 87.5086 157.88 88.1417 159 88.9753C160.119 89.809 160.981 90.8165 161.587 91.9978C162.212 93.168 162.559 94.4985 162.629 95.9892C162.714 97.4839 162.521 99.1067 162.052 100.857C161.664 102.306 161.066 103.634 160.257 104.841C159.453 106.033 158.443 107.024 157.228 107.815C156.033 108.595 154.645 109.096 153.064 109.32C151.484 109.544 149.735 109.399 147.819 108.885C146.37 108.497 145.025 107.902 143.783 107.101C142.542 106.299 141.49 105.338 140.625 104.216C139.78 103.084 139.202 101.829 138.892 100.452C138.597 99.079 138.644 97.6357 139.033 96.1224L146.096 98.0146C145.937 98.9102 145.954 99.7234 146.146 100.454C146.343 101.17 146.704 101.785 147.23 102.298C147.76 102.795 148.432 103.153 149.247 103.372C150.032 103.582 150.736 103.609 151.361 103.453C151.989 103.281 152.534 102.966 152.997 102.508C153.474 102.053 153.886 101.484 154.231 100.8C154.576 100.116 154.859 99.3592 155.082 98.5291C155.312 97.6688 155.42 96.8728 155.406 96.141C155.396 95.3942 155.251 94.7247 154.973 94.1326C154.699 93.5253 154.28 93.0085 153.714 92.5821C153.168 92.1447 152.458 91.8087 151.582 91.5742C150.435 91.2669 149.487 91.215 148.737 91.4185C147.987 91.622 147.372 91.894 146.892 92.2347Z" fill="#F2E205"/>
</g>
<defs>
<filter id="filter0_i_49_367" x="14.1376" y="30.1376" width="106.647" height="141.801" filterUnits="userSpaceOnUse" color-interpolation-filters="sRGB">
<feFlood flood-opacity="0" result="BackgroundImageFix"/>
<feBlend mode="normal" in="SourceGraphic" in2="BackgroundImageFix" result="shape"/>
<feColorMatrix in="SourceAlpha" type="matrix" values="0 0 0 0 0 0 0 0 0 0 0 0 0 0 0 0 0 0 127 0" result="hardAlpha"/>
<feOffset dy="4"/>
<feGaussianBlur stdDeviation="2"/>
<feComposite in2="hardAlpha" operator="arithmetic" k2="-1" k3="1"/>
<feColorMatrix type="matrix" values="0 0 0 0 0 0 0 0 0 0 0 0 0 0 0 0 0 0 0.25 0"/>
<feBlend mode="normal" in2="shape" result="effect1_innerShadow_49_367"/>
</filter>
<filter id="filter1_d_49_367" x="56" y="0" width="93" height="135.5" filterUnits="userSpaceOnUse" color-interpolation-filters="sRGB">
<feFlood flood-opacity="0" result="BackgroundImageFix"/>
<feColorMatrix in="SourceAlpha" type="matrix" values="0 0 0 0 0 0 0 0 0 0 0 0 0 0 0 0 0 0 127 0" result="hardAlpha"/>
<feOffset dy="4"/>
<feGaussianBlur stdDeviation="2"/>
<feComposite in2="hardAlpha" operator="out"/>
<feColorMatrix type="matrix" values="0 0 0 0 0 0 0 0 0 0 0 0 0 0 0 0 0 0 0.25 0"/>
<feBlend mode="normal" in2="BackgroundImageFix" result="effect1_dropShadow_49_367"/>
<feBlend mode="normal" in="SourceGraphic" in2="effect1_dropShadow_49_367" result="shape"/>
</filter>
<filter id="filter2_d_49_367" x="93.3668" y="23.3668" width="116.363" height="146.419" filterUnits="userSpaceOnUse" color-interpolation-filters="sRGB">
<feFlood flood-opacity="0" result="BackgroundImageFix"/>
<feColorMatrix in="SourceAlpha" type="matrix" values="0 0 0 0 0 0 0 0 0 0 0 0 0 0 0 0 0 0 127 0" result="hardAlpha"/>
<feOffset dy="4"/>
<feGaussianBlur stdDeviation="2"/>
<feComposite in2="hardAlpha" operator="out"/>
<feColorMatrix type="matrix" values="0 0 0 0 0 0 0 0 0 0 0 0 0 0 0 0 0 0 0.25 0"/>
<feBlend mode="normal" in2="BackgroundImageFix" result="effect1_dropShadow_49_367"/>
<feBlend mode="normal" in="SourceGraphic" in2="effect1_dropShadow_49_367" result="shape"/>
</filter>
<filter id="filter3_d_49_367" x="132.431" y="72.4191" width="39.6134" height="47.4863" filterUnits="userSpaceOnUse" color-interpolation-filters="sRGB">
<feFlood flood-opacity="0" result="BackgroundImageFix"/>
<feColorMatrix in="SourceAlpha" type="matrix" values="0 0 0 0 0 0 0 0 0 0 0 0 0 0 0 0 0 0 127 0" result="hardAlpha"/>
<feOffset dy="4"/>
<feGaussianBlur stdDeviation="2"/>
<feComposite in2="hardAlpha" operator="out"/>
<feColorMatrix type="matrix" values="0 0 0 0 0 0 0 0 0 0 0 0 0 0 0 0 0 0 0.25 0"/>
<feBlend mode="normal" in2="BackgroundImageFix" result="effect1_dropShadow_49_367"/>
<feBlend mode="normal" in="SourceGraphic" in2="effect1_dropShadow_49_367" result="shape"/>
</filter>
</defs>
</svg>
